<mxfile host="app.diagrams.net" agent="Mozilla/5.0 (Macintosh; Intel Mac OS X 10_15_7) AppleWebKit/537.36 (KHTML, like Gecko) Chrome/131.0.0.0 Safari/537.36" version="26.0.5">
  <diagram name="Page-1" id="M_GFc16mToV7xNV-H_1n">
    <mxGraphModel dx="2092" dy="1847" grid="1" gridSize="10" guides="1" tooltips="1" connect="1" arrows="1" fold="1" page="1" pageScale="1" pageWidth="850" pageHeight="1100" math="0" shadow="0">
      <root>
        <mxCell id="0" />
        <mxCell id="1" parent="0" />
        <mxCell id="-oIOArTZsbpl34OEU4rh-20" value="" style="rounded=0;whiteSpace=wrap;html=1;strokeColor=none;" parent="1" vertex="1">
          <mxGeometry x="-5" y="-20" width="1435" height="780" as="geometry" />
        </mxCell>
        <mxCell id="-oIOArTZsbpl34OEU4rh-1" value="" style="edgeStyle=orthogonalEdgeStyle;rounded=0;orthogonalLoop=1;jettySize=auto;html=1;exitX=0.5;exitY=0;exitDx=0;exitDy=0;" parent="1" source="-oIOArTZsbpl34OEU4rh-21" target="-oIOArTZsbpl34OEU4rh-14" edge="1">
          <mxGeometry relative="1" as="geometry">
            <mxPoint x="901.6399999999999" y="709.8399999999999" as="sourcePoint" />
          </mxGeometry>
        </mxCell>
        <mxCell id="-oIOArTZsbpl34OEU4rh-4" value="" style="edgeStyle=orthogonalEdgeStyle;rounded=0;orthogonalLoop=1;jettySize=auto;html=1;" parent="1" source="-oIOArTZsbpl34OEU4rh-14" target="-oIOArTZsbpl34OEU4rh-15" edge="1">
          <mxGeometry relative="1" as="geometry" />
        </mxCell>
        <mxCell id="-oIOArTZsbpl34OEU4rh-5" value="" style="edgeStyle=orthogonalEdgeStyle;rounded=0;orthogonalLoop=1;jettySize=auto;html=1;exitX=0.5;exitY=0;exitDx=0;exitDy=0;entryX=0.299;entryY=0.983;entryDx=0;entryDy=0;entryPerimeter=0;" parent="1" source="-oIOArTZsbpl34OEU4rh-15" edge="1">
          <mxGeometry relative="1" as="geometry">
            <mxPoint x="888" y="377" as="targetPoint" />
          </mxGeometry>
        </mxCell>
        <mxCell id="-oIOArTZsbpl34OEU4rh-6" value="" style="edgeStyle=orthogonalEdgeStyle;rounded=0;orthogonalLoop=1;jettySize=auto;html=1;" parent="1" source="-oIOArTZsbpl34OEU4rh-13" target="-oIOArTZsbpl34OEU4rh-17" edge="1">
          <mxGeometry relative="1" as="geometry" />
        </mxCell>
        <mxCell id="-oIOArTZsbpl34OEU4rh-7" value="" style="endArrow=classic;html=1;rounded=0;entryX=0.5;entryY=0;entryDx=0;entryDy=0;exitX=0.684;exitY=0.99;exitDx=0;exitDy=0;exitPerimeter=0;" parent="1" target="-oIOArTZsbpl34OEU4rh-13" edge="1">
          <mxGeometry width="50" height="50" relative="1" as="geometry">
            <mxPoint x="949" y="378" as="sourcePoint" />
            <mxPoint x="510" y="589" as="targetPoint" />
            <Array as="points">
              <mxPoint x="950" y="429" />
              <mxPoint x="1055" y="429" />
            </Array>
          </mxGeometry>
        </mxCell>
        <mxCell id="-oIOArTZsbpl34OEU4rh-8" value="" style="edgeStyle=orthogonalEdgeStyle;rounded=0;orthogonalLoop=1;jettySize=auto;html=1;exitX=0.5;exitY=1;exitDx=0;exitDy=0;entryX=0.523;entryY=0.012;entryDx=0;entryDy=0;entryPerimeter=0;" parent="1" source="-oIOArTZsbpl34OEU4rh-17" target="-oIOArTZsbpl34OEU4rh-22" edge="1">
          <mxGeometry relative="1" as="geometry">
            <mxPoint x="905.0384615384614" y="709" as="targetPoint" />
          </mxGeometry>
        </mxCell>
        <mxCell id="-oIOArTZsbpl34OEU4rh-13" value="&lt;div&gt;Prompt builder receives relevant embedded documents and embedded question&lt;/div&gt;" style="whiteSpace=wrap;html=1;verticalAlign=top;strokeColor=#000000;rounded=1;labelBackgroundColor=#ffffff;strokeWidth=2;shadow=0;dashed=0;" parent="1" vertex="1">
          <mxGeometry x="970" y="479" width="170" height="60" as="geometry" />
        </mxCell>
        <mxCell id="-oIOArTZsbpl34OEU4rh-14" value="&lt;div&gt;&lt;br&gt;&lt;/div&gt;Embed query into vector&lt;div&gt;&lt;/div&gt;" style="whiteSpace=wrap;html=1;verticalAlign=top;strokeColor=#000000;rounded=1;labelBackgroundColor=#ffffff;strokeWidth=2;shadow=0;dashed=0;" parent="1" vertex="1">
          <mxGeometry x="680" y="579" width="120" height="60" as="geometry" />
        </mxCell>
        <mxCell id="-oIOArTZsbpl34OEU4rh-15" value="&lt;div&gt;&lt;br&gt;&lt;/div&gt;&lt;div&gt;Retrieve appropriate embedding&lt;/div&gt;" style="whiteSpace=wrap;html=1;verticalAlign=top;strokeColor=#000000;rounded=1;labelBackgroundColor=#ffffff;strokeWidth=2;shadow=0;dashed=0;" parent="1" vertex="1">
          <mxGeometry x="680" y="479" width="120" height="60" as="geometry" />
        </mxCell>
        <mxCell id="-oIOArTZsbpl34OEU4rh-16" value="&lt;h1 style=&quot;margin-top: 0px;&quot;&gt;RAG pipeline&lt;/h1&gt;" style="text;html=1;whiteSpace=wrap;overflow=hidden;rounded=0;" parent="1" vertex="1">
          <mxGeometry x="830.5" y="539" width="164.5" height="70" as="geometry" />
        </mxCell>
        <mxCell id="-oIOArTZsbpl34OEU4rh-17" value="&lt;div&gt;&lt;br&gt;&lt;/div&gt;LLM generates response" style="whiteSpace=wrap;html=1;verticalAlign=top;strokeColor=#000000;rounded=1;labelBackgroundColor=#ffffff;strokeWidth=2;shadow=0;dashed=0;" parent="1" vertex="1">
          <mxGeometry x="995" y="579" width="120" height="60" as="geometry" />
        </mxCell>
        <mxCell id="-oIOArTZsbpl34OEU4rh-18" value="" style="shape=cylinder3;whiteSpace=wrap;html=1;boundedLbl=1;backgroundOutline=1;size=15;strokeWidth=2;" parent="1" vertex="1">
          <mxGeometry x="840.5" y="247" width="160" height="130" as="geometry" />
        </mxCell>
        <mxCell id="-oIOArTZsbpl34OEU4rh-21" value="Question in natural language&lt;div&gt;&lt;/div&gt;&lt;div&gt;&lt;/div&gt;" style="whiteSpace=wrap;html=1;verticalAlign=top;strokeColor=#000000;rounded=1;labelBackgroundColor=#ffffff;strokeWidth=2;shadow=0;dashed=0;" parent="1" vertex="1">
          <mxGeometry x="779.5" y="687" width="120" height="60" as="geometry" />
        </mxCell>
        <mxCell id="-oIOArTZsbpl34OEU4rh-22" value="Answer in natural language&lt;div&gt;&lt;/div&gt;&lt;div&gt;&lt;/div&gt;" style="whiteSpace=wrap;html=1;verticalAlign=top;strokeColor=#000000;rounded=1;labelBackgroundColor=#ffffff;strokeWidth=2;shadow=0;dashed=0;" parent="1" vertex="1">
          <mxGeometry x="909.5" y="687" width="120" height="60" as="geometry" />
        </mxCell>
        <mxCell id="OziRB58519Xj1HRZcm_--45" value="" style="edgeStyle=orthogonalEdgeStyle;rounded=0;orthogonalLoop=1;jettySize=auto;html=1;" edge="1" parent="1" source="OziRB58519Xj1HRZcm_--46">
          <mxGeometry relative="1" as="geometry">
            <mxPoint x="380" y="152" as="targetPoint" />
          </mxGeometry>
        </mxCell>
        <mxCell id="OziRB58519Xj1HRZcm_--46" value="&lt;font style=&quot;font-size: 18px;&quot;&gt;Transform each record into Document objects&lt;/font&gt;" style="rounded=1;whiteSpace=wrap;html=1;strokeWidth=2;" vertex="1" parent="1">
          <mxGeometry x="185.25" y="109.5" width="170" height="85" as="geometry" />
        </mxCell>
        <mxCell id="OziRB58519Xj1HRZcm_--49" value="" style="edgeStyle=orthogonalEdgeStyle;rounded=0;orthogonalLoop=1;jettySize=auto;html=1;" edge="1" parent="1" source="OziRB58519Xj1HRZcm_--50" target="OziRB58519Xj1HRZcm_--52">
          <mxGeometry relative="1" as="geometry" />
        </mxCell>
        <mxCell id="OziRB58519Xj1HRZcm_--50" value="&lt;div&gt;&lt;font style=&quot;font-size: 17px;&quot;&gt;&lt;br&gt;&lt;/font&gt;&lt;/div&gt;&lt;font style=&quot;font-size: 18px;&quot;&gt;Clean documents&lt;/font&gt;" style="rounded=1;whiteSpace=wrap;html=1;verticalAlign=top;strokeColor=#000000;labelBackgroundColor=#ffffff;strokeWidth=2;shadow=0;dashed=0;" vertex="1" parent="1">
          <mxGeometry x="380" y="114.5" width="160" height="75" as="geometry" />
        </mxCell>
        <mxCell id="OziRB58519Xj1HRZcm_--51" value="" style="edgeStyle=orthogonalEdgeStyle;rounded=0;orthogonalLoop=1;jettySize=auto;html=1;" edge="1" parent="1" source="OziRB58519Xj1HRZcm_--52" target="OziRB58519Xj1HRZcm_--53">
          <mxGeometry relative="1" as="geometry" />
        </mxCell>
        <mxCell id="OziRB58519Xj1HRZcm_--52" value="&lt;div&gt;&lt;span style=&quot;font-size: 18px; background-color: light-dark(rgb(255, 255, 255), rgb(18, 18, 18)); color: light-dark(rgb(0, 0, 0), rgb(255, 255, 255));&quot;&gt;Chunk and Embed documents&lt;/span&gt;&lt;br&gt;&lt;/div&gt;" style="whiteSpace=wrap;html=1;verticalAlign=top;strokeColor=#000000;rounded=1;labelBackgroundColor=#ffffff;strokeWidth=2;shadow=0;dashed=0;" vertex="1" parent="1">
          <mxGeometry x="570" y="114.5" width="140" height="75" as="geometry" />
        </mxCell>
        <mxCell id="OziRB58519Xj1HRZcm_--57" value="" style="edgeStyle=orthogonalEdgeStyle;rounded=0;orthogonalLoop=1;jettySize=auto;html=1;" edge="1" parent="1" source="OziRB58519Xj1HRZcm_--53" target="-oIOArTZsbpl34OEU4rh-18">
          <mxGeometry relative="1" as="geometry" />
        </mxCell>
        <mxCell id="OziRB58519Xj1HRZcm_--53" value="&lt;div&gt;&lt;span style=&quot;font-size: 18px; background-color: light-dark(rgb(255, 255, 255), rgb(18, 18, 18)); color: light-dark(rgb(0, 0, 0), rgb(255, 255, 255));&quot;&gt;Write embedded documents&lt;/span&gt;&lt;br&gt;&lt;/div&gt;" style="whiteSpace=wrap;html=1;verticalAlign=top;strokeColor=#000000;rounded=1;labelBackgroundColor=#ffffff;strokeWidth=2;shadow=0;dashed=0;" vertex="1" parent="1">
          <mxGeometry x="740" y="114.5" width="140" height="75" as="geometry" />
        </mxCell>
        <mxCell id="OziRB58519Xj1HRZcm_--54" value="&lt;h1 style=&quot;margin-top: 0px;&quot;&gt;Indexing pipeline&lt;/h1&gt;" style="text;html=1;whiteSpace=wrap;overflow=hidden;rounded=0;" vertex="1" parent="1">
          <mxGeometry x="390" y="210" width="290" height="50" as="geometry" />
        </mxCell>
        <mxCell id="OziRB58519Xj1HRZcm_--59" value="" style="whiteSpace=wrap;html=1;shape=mxgraph.basic.document" vertex="1" parent="1">
          <mxGeometry x="10" y="80" width="100" height="100" as="geometry" />
        </mxCell>
        <mxCell id="OziRB58519Xj1HRZcm_--60" value="" style="whiteSpace=wrap;html=1;shape=mxgraph.basic.document" vertex="1" parent="1">
          <mxGeometry x="20" y="90" width="100" height="100" as="geometry" />
        </mxCell>
        <mxCell id="OziRB58519Xj1HRZcm_--68" value="" style="edgeStyle=orthogonalEdgeStyle;rounded=0;orthogonalLoop=1;jettySize=auto;html=1;" edge="1" parent="1" source="OziRB58519Xj1HRZcm_--61" target="OziRB58519Xj1HRZcm_--46">
          <mxGeometry relative="1" as="geometry" />
        </mxCell>
        <mxCell id="OziRB58519Xj1HRZcm_--61" value="" style="whiteSpace=wrap;html=1;shape=mxgraph.basic.document" vertex="1" parent="1">
          <mxGeometry x="30" y="102" width="100" height="100" as="geometry" />
        </mxCell>
        <mxCell id="OziRB58519Xj1HRZcm_--64" value="" style="points=[];aspect=fixed;html=1;align=center;shadow=0;dashed=0;fillColor=#000000;strokeColor=none;shape=mxgraph.alibaba_cloud.uis_ultimate_internet_service;" vertex="1" parent="1">
          <mxGeometry x="39.67" y="109.5" width="40.67" height="40" as="geometry" />
        </mxCell>
        <mxCell id="OziRB58519Xj1HRZcm_--75" value="" style="shape=image;verticalLabelPosition=bottom;labelBackgroundColor=default;verticalAlign=top;aspect=fixed;imageAspect=0;image=https://upload.wikimedia.org/wikipedia/commons/thumb/f/fa/Microsoft_Azure.svg/1200px-Microsoft_Azure.svg.png;" vertex="1" parent="1">
          <mxGeometry x="580" y="10" width="80" height="80" as="geometry" />
        </mxCell>
        <mxCell id="OziRB58519Xj1HRZcm_--76" value="" style="shape=image;verticalLabelPosition=bottom;labelBackgroundColor=default;verticalAlign=top;aspect=fixed;imageAspect=0;image=https://upload.wikimedia.org/wikipedia/commons/thumb/f/fa/Microsoft_Azure.svg/1200px-Microsoft_Azure.svg.png;" vertex="1" parent="1">
          <mxGeometry x="872.75" y="280" width="80" height="80" as="geometry" />
        </mxCell>
        <mxCell id="OziRB58519Xj1HRZcm_--77" value="" style="shape=image;verticalLabelPosition=bottom;labelBackgroundColor=default;verticalAlign=top;aspect=fixed;imageAspect=0;image=https://upload.wikimedia.org/wikipedia/commons/thumb/f/fa/Microsoft_Azure.svg/1200px-Microsoft_Azure.svg.png;" vertex="1" parent="1">
          <mxGeometry x="590" y="569" width="80" height="80" as="geometry" />
        </mxCell>
        <mxCell id="OziRB58519Xj1HRZcm_--78" value="" style="shape=image;verticalLabelPosition=bottom;labelBackgroundColor=default;verticalAlign=top;aspect=fixed;imageAspect=0;image=https://upload.wikimedia.org/wikipedia/commons/thumb/f/fa/Microsoft_Azure.svg/1200px-Microsoft_Azure.svg.png;" vertex="1" parent="1">
          <mxGeometry x="1120" y="569" width="80" height="80" as="geometry" />
        </mxCell>
        <mxCell id="OziRB58519Xj1HRZcm_--79" value="&lt;h1 style=&quot;margin-top: 0px;&quot;&gt;Azure AI Search&lt;/h1&gt;" style="text;html=1;whiteSpace=wrap;overflow=hidden;rounded=0;" vertex="1" parent="1">
          <mxGeometry x="1029.5" y="270" width="164.5" height="70" as="geometry" />
        </mxCell>
        <mxCell id="OziRB58519Xj1HRZcm_--80" value="&lt;h1 style=&quot;margin-top: 0px;&quot;&gt;Embedding model deployed on Azure&amp;nbsp;&lt;/h1&gt;" style="text;html=1;whiteSpace=wrap;overflow=hidden;rounded=0;" vertex="1" parent="1">
          <mxGeometry x="676" y="15" width="264" height="70" as="geometry" />
        </mxCell>
        <mxCell id="OziRB58519Xj1HRZcm_--81" value="&lt;h1 style=&quot;margin-top: 0px;&quot;&gt;Embedding model deployed on Azure&amp;nbsp;&lt;/h1&gt;" style="text;html=1;whiteSpace=wrap;overflow=hidden;rounded=0;" vertex="1" parent="1">
          <mxGeometry x="370" y="579" width="264" height="70" as="geometry" />
        </mxCell>
        <mxCell id="OziRB58519Xj1HRZcm_--82" value="&lt;h1 style=&quot;margin-top: 0px;&quot;&gt;Language model deployed on Azure&amp;nbsp;&lt;/h1&gt;" style="text;html=1;whiteSpace=wrap;overflow=hidden;rounded=0;" vertex="1" parent="1">
          <mxGeometry x="1190" y="569" width="264" height="70" as="geometry" />
        </mxCell>
      </root>
    </mxGraphModel>
  </diagram>
</mxfile>
